:FULLY-SPECIFIED
:FORCE-ALL-JOINTS-BE-3DOF
:DEGREES
3160
root 0.955234 16.9284 -33.3596 6.05587 5.11668 -3.76005
lfemur -18.5429 -2.38709 -8.22512
ltibia 35.2055 -0 0
lfoot -16.4233 7.61152 0.000627631
ltoes -39.3499 0 0
rfemur -19.4476 -0.22035 18.5308
rtibia 39.0621 -0 0
rfoot -12.143 -21.0346 0.00120259
rtoes -16.4428 0 0
lowerback 5.67708 1.55534 -0.511694
upperback -3.96324 2.17259 1.88765
thorax -7.43453 1.15074 2.00634
lowerneck -5.35349 -5.12032 -7.92392
upperneck 9.22147 -6.76111 5.98306
head 4.10335 -3.32521 2.74827
lclavicle -3.7707e-15 -3.49861e-14 0
lhumerus -33.0023 -18.4127 94.8289
lradius 50.9859 -0 0
lwrist -9.34305 0 0
lhand -33.8097 30.8618 -0.000210412
lfingers 7.12502 -0 0
lthumb -6.99584 60.7258 -0.000187732
rclavicle -3.7707e-15 -3.49861e-14 0
rhumerus -35.3969 13.8275 -81.3253
rradius 50.4864 -0 0
rwrist 0.856853 0 0
rhand -28.7521 -33.7769 0.00373922
rfingers 7.12502 -0 0
rthumb -2.11226 -63.7443 0.00355182
3161
root 0.960883 16.9307 -33.3558 6.04992 4.99584 -3.79945
lfemur -18.4426 -2.37576 -8.23086
ltibia 35.1546 -0 0
lfoot -16.4105 7.71019 0.000628766
ltoes -39.4249 0 0
rfemur -19.3784 -0.179368 18.5353
rtibia 38.9393 -0 0
rfoot -12.1071 -20.9672 0.00120476
rtoes -16.4399 0 0
lowerback 5.6362 1.57351 -0.526043
upperback -3.97199 2.19517 1.88115
thorax -7.4214 1.16244 2.0057
lowerneck -5.39495 -5.10944 -7.91551
upperneck 9.3271 -6.74662 5.96753
head 4.14051 -3.31796 2.74127
lclavicle -3.7707e-15 -3.49861e-14 0
lhumerus -32.9197 -18.0996 94.7044
lradius 50.2756 -0 0
lwrist -9.55983 0 0
lhand -33.8421 30.8749 -0.000210792
lfingers 7.12502 -0 0
lthumb -7.02708 60.7379 -0.000188072
rclavicle -3.7707e-15 -3.49861e-14 0
rhumerus -35.3783 13.4608 -81.3167
rradius 49.7616 -0 0
rwrist 0.97343 0 0
rhand -28.6349 -33.7127 0.00374598
rfingers 7.12502 -0 0
rthumb -1.99901 -63.6812 0.00355824
3162
root 0.966084 16.9328 -33.3521 6.04411 4.87619 -3.83843
lfemur -18.3432 -2.36452 -8.23652
ltibia 35.1041 -0 0
lfoot -16.3978 7.80789 0.000608168
ltoes -39.4992 0 0
rfemur -19.3098 -0.138792 18.5399
rtibia 38.8178 -0 0
rfoot -12.0716 -20.9004 0.0011653
rtoes -16.437 0 0
lowerback 5.59571 1.5915 -0.540265
upperback -3.98065 2.21753 1.8747
thorax -7.40841 1.17402 2.00507
lowerneck -5.43599 -5.09867 -7.90718
upperneck 9.43168 -6.73225 5.95218
head 4.17732 -3.31077 2.73435
lclavicle -3.7707e-15 -3.49861e-14 0
lhumerus -32.8388 -17.7894 94.5819
lradius 49.5722 -0 0
lwrist -9.77448 0 0
lhand -33.8741 30.8878 -0.000203887
lfingers 7.12502 -0 0
lthumb -7.05801 60.7499 -0.000181911
rclavicle -3.7707e-15 -3.49861e-14 0
rhumerus -35.36 13.0977 -81.3084
rradius 49.0439 -0 0
rwrist 1.08886 0 0
rhand -28.5187 -33.6492 0.00362326
rfingers 7.12502 -0 0
rthumb -1.88686 -63.6187 0.00344167
3163
root 0.97083 16.9347 -33.3487 6.03853 4.7595 -3.87644
lfemur -18.2464 -2.35355 -8.24203
ltibia 35.055 -0 0
lfoot -16.3855 7.90318 0.000567262
ltoes -39.5716 0 0
rfemur -19.2429 -0.099227 18.5444
rtibia 38.6993 -0 0
rfoot -12.0369 -20.8353 0.00108692
rtoes -16.4342 0 0
lowerback 5.55622 1.60903 -0.554147
upperback -3.9891 2.23934 1.86841
thorax -7.39573 1.18532 2.00446
lowerneck -5.47602 -5.08815 -7.89907
upperneck 9.53367 -6.71821 5.93724
head 4.21321 -3.30376 2.7276
lclavicle -3.7707e-15 -3.49861e-14 0
lhumerus -32.7607 -17.4868 94.463
lradius 48.8862 -0 0
lwrist -9.98383 0 0
lhand -33.9054 30.9005 -0.000190173
lfingers 7.12502 -0 0
lthumb -7.08818 60.7616 -0.000169675
rclavicle -3.7707e-15 -3.49861e-14 0
rhumerus -35.3422 12.7435 -81.3003
rradius 48.3439 -0 0
rwrist 1.20144 0 0
rhand -28.4055 -33.5872 0.00337955
rfingers 7.12502 -0 0
rthumb -1.77749 -63.5578 0.00321018
